<?xml version="1.0" encoding="UTF-8" standalone="no"?>
<svg
   xmlns:dc="http://purl.org/dc/elements/1.1/"
   xmlns:cc="http://creativecommons.org/ns#"
   xmlns:rdf="http://www.w3.org/1999/02/22-rdf-syntax-ns#"
   xmlns:svg="http://www.w3.org/2000/svg"
   xmlns="http://www.w3.org/2000/svg"
   xmlns:sodipodi="http://sodipodi.sourceforge.net/DTD/sodipodi-0.dtd"
   xmlns:inkscape="http://www.inkscape.org/namespaces/inkscape"
   width="24"
   height="24"
   version="1"
   id="svg16"
   sodipodi:docname="mpv.svg"
   inkscape:version="1.0.2 (e86c870879, 2021-01-15, custom)">
  <metadata
     id="metadata22">
    <rdf:RDF>
      <cc:Work
         rdf:about="">
        <dc:format>image/svg+xml</dc:format>
        <dc:type
           rdf:resource="http://purl.org/dc/dcmitype/StillImage" />
      </cc:Work>
    </rdf:RDF>
  </metadata>
  <defs
     id="defs20" />
  <sodipodi:namedview
     pagecolor="#ffffff"
     bordercolor="#666666"
     borderopacity="1"
     objecttolerance="10"
     gridtolerance="10"
     guidetolerance="10"
     inkscape:pageopacity="0"
     inkscape:pageshadow="2"
     inkscape:window-width="1257"
     inkscape:window-height="684"
     id="namedview18"
     showgrid="false"
     inkscape:zoom="10.145833"
     inkscape:cx="-20.672793"
     inkscape:cy="17.646934"
     inkscape:window-x="14"
     inkscape:window-y="740"
     inkscape:window-maximized="0"
     inkscape:current-layer="svg16"
     inkscape:document-rotation="0" />
  <ellipse
     style="opacity:0.2;stroke-width:0.867452"
     cx="11.97455"
     cy="12.425235"
     id="circle2"
     rx="8.6745453"
     ry="8.6745119" />
  <ellipse
     style="fill:#8d348e;stroke-width:0.867452"
     cx="11.97455"
     cy="11.991512"
     id="circle4"
     rx="8.6745453"
     ry="8.6745119" />
  <ellipse
     style="opacity:0.3;stroke-width:0.867452"
     cx="12.842007"
     cy="11.124061"
     id="circle6"
     rx="6.0721807"
     ry="6.0721574" />
  <ellipse
     style="opacity:0.2;stroke-width:0.867452"
     cx="11.97455"
     cy="12.425235"
     id="circle8"
     rx="4.3372726"
     ry="4.337256" />
  <ellipse
     style="fill:#ffffff;stroke-width:0.867452"
     cx="11.97455"
     cy="11.991512"
     id="circle10"
     rx="4.3372726"
     ry="4.337256" />
  <path
     style="fill:#691f69;stroke-width:0.435969"
     d="m 14.14318,11.991512 -1.518045,0.86745 -1.518043,0.867451 V 11.991511 10.25661 l 1.518043,0.867452 z"
     id="path12" />
  <path
     style="opacity:0.1;fill:#ffffff;stroke-width:0.867452"
     d="M 11.974545,3.3170006 A 8.6745449,8.6745116 0 0 0 3.3,11.991512 a 8.6745449,8.6745116 0 0 0 0.00933,0.25244 8.6745449,8.6745116 0 0 1 8.665226,-8.4932258 8.6745449,8.6745116 0 0 1 8.665225,8.4220688 8.6745449,8.6745116 0 0 0 0.0093,-0.181283 8.6745449,8.6745116 0 0 0 -8.674542,-8.6745114 z"
     id="path14" />
</svg>
